<svg width="45" height="49" viewBox="0 0 45 49" fill="none" xmlns="http://www.w3.org/2000/svg">
<g filter="url(#filter0_ddd_354_2523)">
<path d="M24.6667 29C25.1251 29 25.5173 28.8369 25.8434 28.5108C26.1695 28.1847 26.3329 27.7922 26.3334 27.3333V17.3333C26.3334 16.875 26.1701 16.4828 25.8434 16.1567C25.5167 15.8305 25.1245 15.6672 24.6667 15.6667H17.1667C16.7084 15.6667 16.3159 15.83 15.9892 16.1567C15.6626 16.4833 15.4995 16.8755 15.5001 17.3333V27.3333C15.5001 27.7917 15.6631 28.1842 15.9892 28.5108C16.3154 28.8375 16.7079 29.0005 17.1667 29H24.6667ZM28.0001 32.3333C28.4584 32.3333 28.8506 32.1703 29.1767 31.8442C29.5029 31.518 29.6662 31.1255 29.6667 30.6667V19.8333C29.6667 19.5972 29.5867 19.3994 29.4267 19.24C29.2667 19.0805 29.069 19.0005 28.8334 19C28.5979 18.9994 28.3998 19.0794 28.2392 19.24C28.0787 19.4005 27.999 19.5983 28.0001 19.8333V30.6667H19.6667C19.4306 30.6667 19.2326 30.7467 19.0726 30.9067C18.9126 31.0667 18.8329 31.2644 18.8334 31.5C18.834 31.7355 18.914 31.9336 19.0734 32.0942C19.2329 32.2547 19.4306 32.3344 19.6667 32.3333H28.0001Z" fill="white"/>
</g>
<defs>
<filter id="filter0_ddd_354_2523" x="0.5" y="0.666656" width="44.1667" height="47.6667" filterUnits="userSpaceOnUse" color-interpolation-filters="sRGB">
<feFlood flood-opacity="0" result="BackgroundImageFix"/>
<feColorMatrix in="SourceAlpha" type="matrix" values="0 0 0 0 0 0 0 0 0 0 0 0 0 0 0 0 0 0 127 0" result="hardAlpha"/>
<feOffset dy="8"/>
<feGaussianBlur stdDeviation="4"/>
<feComposite in2="hardAlpha" operator="out"/>
<feColorMatrix type="matrix" values="0 0 0 0 0.5077 0 0 0 0 0.5077 0 0 0 0 0.5077 0 0 0 0.1 0"/>
<feBlend mode="normal" in2="BackgroundImageFix" result="effect1_dropShadow_354_2523"/>
<feColorMatrix in="SourceAlpha" type="matrix" values="0 0 0 0 0 0 0 0 0 0 0 0 0 0 0 0 0 0 127 0" result="hardAlpha"/>
<feOffset dx="1" dy="3"/>
<feGaussianBlur stdDeviation="2"/>
<feComposite in2="hardAlpha" operator="out"/>
<feColorMatrix type="matrix" values="0 0 0 0 0.261362 0 0 0 0 0.261362 0 0 0 0 0.261362 0 0 0 0.08 0"/>
<feBlend mode="normal" in2="effect1_dropShadow_354_2523" result="effect2_dropShadow_354_2523"/>
<feColorMatrix in="SourceAlpha" type="matrix" values="0 0 0 0 0 0 0 0 0 0 0 0 0 0 0 0 0 0 127 0" result="hardAlpha"/>
<feOffset/>
<feGaussianBlur stdDeviation="7.5"/>
<feComposite in2="hardAlpha" operator="out"/>
<feColorMatrix type="matrix" values="0 0 0 0 0 0 0 0 0 0 0 0 0 0 0 0 0 0 0.15 0"/>
<feBlend mode="normal" in2="effect2_dropShadow_354_2523" result="effect3_dropShadow_354_2523"/>
<feBlend mode="normal" in="SourceGraphic" in2="effect3_dropShadow_354_2523" result="shape"/>
</filter>
</defs>
</svg>
