<svg width="28" height="29" viewBox="0 0 28 29" fill="none" xmlns="http://www.w3.org/2000/svg">
<path d="M8.16675 25C7.52509 25 6.97597 24.7717 6.51942 24.3152C6.06286 23.8586 5.8342 23.3091 5.83342 22.6667V7.5C5.50286 7.5 5.22597 7.388 5.00275 7.164C4.77953 6.94 4.66753 6.66311 4.66675 6.33333C4.66597 6.00356 4.77797 5.72667 5.00275 5.50267C5.22753 5.27867 5.50442 5.16667 5.83342 5.16667H10.5001C10.5001 4.83611 10.6121 4.55922 10.8361 4.336C11.0601 4.11278 11.337 4.00078 11.6668 4H16.3334C16.664 4 16.9413 4.112 17.1653 4.336C17.3893 4.56 17.5009 4.83689 17.5001 5.16667H22.1668C22.4973 5.16667 22.7746 5.27867 22.9986 5.50267C23.2226 5.72667 23.3342 6.00356 23.3334 6.33333C23.3326 6.66311 23.2206 6.94039 22.9974 7.16517C22.7742 7.38994 22.4973 7.50156 22.1668 7.5V22.6667C22.1668 23.3083 21.9385 23.8578 21.4819 24.3152C21.0254 24.7725 20.4759 25.0008 19.8334 25H8.16675ZM19.8334 7.5H8.16675V22.6667H19.8334V7.5ZM11.6668 20.3333C11.9973 20.3333 12.2746 20.2213 12.4986 19.9973C12.7226 19.7733 12.8342 19.4964 12.8334 19.1667V11C12.8334 10.6694 12.7214 10.3926 12.4974 10.1693C12.2734 9.94611 11.9965 9.83411 11.6668 9.83333C11.337 9.83256 11.0601 9.94456 10.8361 10.1693C10.6121 10.3941 10.5001 10.671 10.5001 11V19.1667C10.5001 19.4972 10.6121 19.7745 10.8361 19.9985C11.0601 20.2225 11.337 20.3341 11.6668 20.3333ZM16.3334 20.3333C16.664 20.3333 16.9413 20.2213 17.1653 19.9973C17.3893 19.7733 17.5009 19.4964 17.5001 19.1667V11C17.5001 10.6694 17.3881 10.3926 17.1641 10.1693C16.9401 9.94611 16.6632 9.83411 16.3334 9.83333C16.0036 9.83256 15.7268 9.94456 15.5028 10.1693C15.2788 10.3941 15.1668 10.671 15.1668 11V19.1667C15.1668 19.4972 15.2788 19.7745 15.5028 19.9985C15.7268 20.2225 16.0036 20.3341 16.3334 20.3333Z" fill="white"/>
</svg>
