<svg width="20" height="20" viewBox="0 0 20 20" fill="none" xmlns="http://www.w3.org/2000/svg">
<rect width="20" height="20" rx="10" fill="#BBBBBE"/>
<path d="M7.56874 13.6039C7.24607 13.9263 6.72338 13.9269 6.40005 13.6051C6.0757 13.2824 6.07479 12.7577 6.39802 12.4339L8.8275 9.99967L6.40106 7.58531C6.07649 7.26235 6.07649 6.737 6.40106 6.41404C6.72384 6.09287 7.24562 6.09341 7.56773 6.41525L10 8.84551L12.4125 6.41828C12.7337 6.0951 13.2561 6.09365 13.5791 6.41505C13.9031 6.73746 13.9031 7.26189 13.5791 7.5843L11.1517 9.99967L13.5822 12.4349C13.9048 12.7582 13.9039 13.2819 13.5801 13.6041C13.2566 13.9261 12.7332 13.9246 12.4114 13.6009L10 11.1747L7.56874 13.6039Z" fill="#ECEDEE"/>
</svg>
